<mxfile host="app.diagrams.net" modified="2021-11-26T01:46:42.610Z" agent="5.0 (Windows NT 10.0; Win64; x64) AppleWebKit/537.36 (KHTML, like Gecko) Chrome/95.0.4638.69 Safari/537.36" etag="oxNEpwjgue-bQdakkTrY" version="15.7.0" type="github">
  <diagram id="C5RBs43oDa-KdzZeNtuy" name="Page-1">
    <mxGraphModel dx="1303" dy="845" grid="1" gridSize="10" guides="1" tooltips="1" connect="1" arrows="1" fold="1" page="1" pageScale="1" pageWidth="827" pageHeight="1169" math="0" shadow="0">
      <root>
        <mxCell id="WIyWlLk6GJQsqaUBKTNV-0" />
        <mxCell id="WIyWlLk6GJQsqaUBKTNV-1" parent="WIyWlLk6GJQsqaUBKTNV-0" />
        <mxCell id="WIyWlLk6GJQsqaUBKTNV-2" value="" style="rounded=0;html=1;jettySize=auto;orthogonalLoop=1;fontSize=11;endArrow=block;endFill=0;endSize=8;strokeWidth=1;shadow=0;labelBackgroundColor=none;edgeStyle=orthogonalEdgeStyle;" parent="WIyWlLk6GJQsqaUBKTNV-1" source="WIyWlLk6GJQsqaUBKTNV-3" target="WIyWlLk6GJQsqaUBKTNV-6" edge="1">
          <mxGeometry relative="1" as="geometry" />
        </mxCell>
        <mxCell id="WIyWlLk6GJQsqaUBKTNV-3" value="bagun tidur" style="rounded=1;whiteSpace=wrap;html=1;fontSize=12;glass=0;strokeWidth=1;shadow=0;" parent="WIyWlLk6GJQsqaUBKTNV-1" vertex="1">
          <mxGeometry x="160" y="80" width="120" height="40" as="geometry" />
        </mxCell>
        <mxCell id="kTiPN9f5pI7gll9ZB5T--0" value="" style="edgeStyle=orthogonalEdgeStyle;rounded=0;orthogonalLoop=1;jettySize=auto;html=1;" edge="1" parent="WIyWlLk6GJQsqaUBKTNV-1" source="WIyWlLk6GJQsqaUBKTNV-6" target="WIyWlLk6GJQsqaUBKTNV-7">
          <mxGeometry relative="1" as="geometry" />
        </mxCell>
        <mxCell id="WIyWlLk6GJQsqaUBKTNV-6" value="mandi" style="rhombus;whiteSpace=wrap;html=1;shadow=0;fontFamily=Helvetica;fontSize=12;align=center;strokeWidth=1;spacing=6;spacingTop=-4;" parent="WIyWlLk6GJQsqaUBKTNV-1" vertex="1">
          <mxGeometry x="170" y="180" width="100" height="80" as="geometry" />
        </mxCell>
        <mxCell id="kTiPN9f5pI7gll9ZB5T--4" value="" style="edgeStyle=orthogonalEdgeStyle;rounded=0;orthogonalLoop=1;jettySize=auto;html=1;" edge="1" parent="WIyWlLk6GJQsqaUBKTNV-1" source="WIyWlLk6GJQsqaUBKTNV-7" target="kTiPN9f5pI7gll9ZB5T--3">
          <mxGeometry relative="1" as="geometry" />
        </mxCell>
        <mxCell id="WIyWlLk6GJQsqaUBKTNV-7" value="sekolah" style="rounded=1;whiteSpace=wrap;html=1;fontSize=12;glass=0;strokeWidth=1;shadow=0;" parent="WIyWlLk6GJQsqaUBKTNV-1" vertex="1">
          <mxGeometry x="330" y="200" width="120" height="40" as="geometry" />
        </mxCell>
        <mxCell id="kTiPN9f5pI7gll9ZB5T--6" value="" style="edgeStyle=orthogonalEdgeStyle;rounded=0;orthogonalLoop=1;jettySize=auto;html=1;" edge="1" parent="WIyWlLk6GJQsqaUBKTNV-1" source="kTiPN9f5pI7gll9ZB5T--3" target="kTiPN9f5pI7gll9ZB5T--5">
          <mxGeometry relative="1" as="geometry" />
        </mxCell>
        <mxCell id="kTiPN9f5pI7gll9ZB5T--3" value="merapihkan tempat tidur" style="rhombus;whiteSpace=wrap;html=1;rounded=1;shadow=0;strokeWidth=1;glass=0;" vertex="1" parent="WIyWlLk6GJQsqaUBKTNV-1">
          <mxGeometry x="350" y="300" width="80" height="80" as="geometry" />
        </mxCell>
        <mxCell id="kTiPN9f5pI7gll9ZB5T--10" value="" style="edgeStyle=orthogonalEdgeStyle;rounded=0;orthogonalLoop=1;jettySize=auto;html=1;" edge="1" parent="WIyWlLk6GJQsqaUBKTNV-1" source="kTiPN9f5pI7gll9ZB5T--5" target="kTiPN9f5pI7gll9ZB5T--9">
          <mxGeometry relative="1" as="geometry" />
        </mxCell>
        <mxCell id="kTiPN9f5pI7gll9ZB5T--5" value="tidur siang" style="whiteSpace=wrap;html=1;rounded=1;shadow=0;strokeWidth=1;glass=0;" vertex="1" parent="WIyWlLk6GJQsqaUBKTNV-1">
          <mxGeometry x="490" y="310" width="120" height="60" as="geometry" />
        </mxCell>
        <mxCell id="kTiPN9f5pI7gll9ZB5T--12" value="" style="edgeStyle=orthogonalEdgeStyle;rounded=0;orthogonalLoop=1;jettySize=auto;html=1;" edge="1" parent="WIyWlLk6GJQsqaUBKTNV-1" source="kTiPN9f5pI7gll9ZB5T--9" target="kTiPN9f5pI7gll9ZB5T--11">
          <mxGeometry relative="1" as="geometry" />
        </mxCell>
        <mxCell id="kTiPN9f5pI7gll9ZB5T--9" value="bagun tidur" style="whiteSpace=wrap;html=1;rounded=1;shadow=0;strokeWidth=1;glass=0;" vertex="1" parent="WIyWlLk6GJQsqaUBKTNV-1">
          <mxGeometry x="490" y="170" width="120" height="60" as="geometry" />
        </mxCell>
        <mxCell id="kTiPN9f5pI7gll9ZB5T--14" value="" style="edgeStyle=orthogonalEdgeStyle;rounded=0;orthogonalLoop=1;jettySize=auto;html=1;" edge="1" parent="WIyWlLk6GJQsqaUBKTNV-1" source="kTiPN9f5pI7gll9ZB5T--11" target="kTiPN9f5pI7gll9ZB5T--13">
          <mxGeometry relative="1" as="geometry" />
        </mxCell>
        <mxCell id="kTiPN9f5pI7gll9ZB5T--11" value="mandi" style="rhombus;whiteSpace=wrap;html=1;rounded=1;shadow=0;strokeWidth=1;glass=0;" vertex="1" parent="WIyWlLk6GJQsqaUBKTNV-1">
          <mxGeometry x="610" y="120" width="80" height="80" as="geometry" />
        </mxCell>
        <mxCell id="kTiPN9f5pI7gll9ZB5T--16" value="" style="edgeStyle=orthogonalEdgeStyle;rounded=0;orthogonalLoop=1;jettySize=auto;html=1;" edge="1" parent="WIyWlLk6GJQsqaUBKTNV-1" source="kTiPN9f5pI7gll9ZB5T--13" target="kTiPN9f5pI7gll9ZB5T--15">
          <mxGeometry relative="1" as="geometry" />
        </mxCell>
        <mxCell id="kTiPN9f5pI7gll9ZB5T--13" value="makan" style="rhombus;whiteSpace=wrap;html=1;rounded=1;shadow=0;strokeWidth=1;glass=0;" vertex="1" parent="WIyWlLk6GJQsqaUBKTNV-1">
          <mxGeometry x="570" width="80" height="80" as="geometry" />
        </mxCell>
        <mxCell id="kTiPN9f5pI7gll9ZB5T--17" value="" style="edgeStyle=orthogonalEdgeStyle;rounded=0;orthogonalLoop=1;jettySize=auto;html=1;" edge="1" parent="WIyWlLk6GJQsqaUBKTNV-1" source="kTiPN9f5pI7gll9ZB5T--15" target="WIyWlLk6GJQsqaUBKTNV-3">
          <mxGeometry relative="1" as="geometry" />
        </mxCell>
        <mxCell id="kTiPN9f5pI7gll9ZB5T--15" value="belajar" style="whiteSpace=wrap;html=1;rounded=1;shadow=0;strokeWidth=1;glass=0;" vertex="1" parent="WIyWlLk6GJQsqaUBKTNV-1">
          <mxGeometry x="300" y="40" width="114" height="60" as="geometry" />
        </mxCell>
      </root>
    </mxGraphModel>
  </diagram>
</mxfile>
